<?xml version="1.0" standalone="no"?>
<!DOCTYPE svg PUBLIC "-//W3C//DTD SVG 20010904//EN"
 "http://www.w3.org/TR/2001/REC-SVG-20010904/DTD/svg10.dtd">
<svg version="1.0" xmlns="http://www.w3.org/2000/svg"
 width="120.000000pt" height="120.000000pt" viewBox="0 0 120.000000 120.000000"
 preserveAspectRatio="xMidYMid meet">

<g transform="translate(0.000000,120.000000) scale(0.100000,-0.100000)"
fill="#000000" stroke="none">
<path d="M568 1105 c-14 -8 -36 -31 -48 -50 -20 -33 -25 -35 -76 -35 -31 0
-64 -5 -74 -10 -25 -13 -34 -64 -21 -120 9 -41 8 -47 -15 -71 -48 -50 -22
-108 68 -153 59 -30 99 -32 161 -11 40 13 49 13 80 0 73 -30 160 -11 223 50
50 47 54 71 21 112 -21 25 -23 36 -19 99 5 90 -6 104 -85 104 -53 0 -57 2
-102 50 -49 53 -69 59 -113 35z m73 -72 c67 -74 64 -179 -6 -249 l-26 -26 -29
27 c-59 57 -67 173 -16 239 33 43 45 44 77 9z m-169 -130 c4 -34 14 -75 23
-92 19 -38 7 -40 -35 -5 -41 35 -60 74 -60 124 0 41 1 41 33 38 31 -3 32 -4
39 -65z m346 38 c6 -39 -27 -109 -64 -138 -19 -14 -37 -24 -39 -21 -3 3 2 22
11 43 8 21 15 62 15 92 l0 54 37 -3 c30 -2 38 -7 40 -27z m6 -202 c-34 -33
-83 -49 -132 -41 -38 5 -43 22 -7 22 32 0 94 31 119 59 18 19 21 20 35 6 14
-14 12 -18 -15 -46z m-392 21 c23 -17 59 -33 80 -36 70 -12 42 -29 -37 -24
-56 4 -123 53 -104 77 15 17 13 18 61 -17z"/>
<path d="M163 852 c-13 -2 -32 -15 -44 -30 -19 -25 -20 -35 -14 -137 10 -172
10 -172 130 -276 l105 -91 0 -74 c0 -62 3 -77 23 -100 20 -23 34 -28 84 -32
71 -5 124 15 142 55 13 29 6 236 -11 290 -12 40 -78 98 -120 107 -16 3 -46 20
-65 37 -42 37 -74 50 -102 42 -20 -5 -21 -1 -22 58 0 87 -16 130 -54 144 -16
6 -40 9 -52 7z m41 -64 c3 -7 10 -69 17 -136 l13 -124 50 -48 c28 -26 66 -60
84 -75 32 -26 34 -27 50 -11 16 16 12 22 -62 90 -58 53 -78 77 -73 89 10 27
36 20 84 -23 31 -27 55 -40 75 -40 19 0 40 -10 58 -28 25 -25 29 -38 35 -113
4 -46 5 -109 3 -139 l-3 -55 -60 -3 c-75 -4 -85 7 -85 99 l0 68 -47 43 c-26
24 -76 70 -111 103 l-63 60 -6 112 c-3 61 -3 118 0 127 8 19 36 21 41 4z"/>
<path d="M1013 853 c-35 -7 -63 -50 -63 -97 0 -71 -11 -118 -26 -112 -21 8
-61 -10 -108 -49 -24 -19 -52 -35 -63 -35 -29 0 -84 -40 -106 -77 -24 -41 -37
-285 -18 -321 20 -38 67 -55 134 -49 87 8 108 32 115 132 l5 76 96 85 c53 46
102 93 109 104 13 22 28 254 18 293 -5 21 -55 62 -68 56 -2 -1 -13 -4 -25 -6z
m42 -63 c4 -6 3 -63 -1 -128 l-7 -117 -36 -35 c-20 -20 -70 -65 -111 -102
l-75 -66 -5 -84 -5 -83 -67 -3 c-64 -3 -68 -2 -74 22 -3 14 -2 78 4 142 9 114
10 118 41 146 17 15 42 28 55 28 13 0 47 18 75 41 50 40 81 46 81 15 0 -8 -31
-43 -70 -78 -38 -35 -70 -70 -70 -79 0 -37 31 -27 98 30 89 77 97 87 99 135 5
79 14 181 19 204 5 23 37 31 49 12z"/>
</g>
</svg>
