<?xml version="1.0" encoding="UTF-8" standalone="no"?>
<!-- Created with Inkscape (http://www.inkscape.org/) -->

<svg
   width="204.57005mm"
   height="35.53244mm"
   viewBox="0 0 204.57005 35.53244"
   version="1.1"
   id="svg1"
   xml:space="preserve"
   inkscape:version="1.3 (0e150ed6c4, 2023-07-21)"
   sodipodi:docname="drawing.svg"
   inkscape:export-filename="..\www\learning\react\book-shelf-frontend\public\logo.svg"
   inkscape:export-xdpi="96"
   inkscape:export-ydpi="96"
   xmlns:inkscape="http://www.inkscape.org/namespaces/inkscape"
   xmlns:sodipodi="http://sodipodi.sourceforge.net/DTD/sodipodi-0.dtd"
   xmlns="http://www.w3.org/2000/svg"
   xmlns:svg="http://www.w3.org/2000/svg"><sodipodi:namedview
     id="namedview1"
     pagecolor="#ffffff"
     bordercolor="#000000"
     borderopacity="0.25"
     inkscape:showpageshadow="2"
     inkscape:pageopacity="0.0"
     inkscape:pagecheckerboard="0"
     inkscape:deskcolor="#d1d1d1"
     inkscape:document-units="mm"
     inkscape:zoom="0.97890839"
     inkscape:cx="329.95937"
     inkscape:cy="189.49679"
     inkscape:window-width="1920"
     inkscape:window-height="991"
     inkscape:window-x="-9"
     inkscape:window-y="-9"
     inkscape:window-maximized="1"
     inkscape:current-layer="layer1" /><defs
     id="defs1" /><g
     inkscape:label="Layer 1"
     inkscape:groupmode="layer"
     id="layer1"
     transform="translate(-4.3950719,-5.0515763)"><text
       xml:space="preserve"
       style="font-style:normal;font-variant:normal;font-weight:normal;font-stretch:normal;font-size:36.6164px;font-family:'Franklin Gothic Demi';-inkscape-font-specification:'Franklin Gothic Demi';letter-spacing:-1.98902px;fill:#cccccc;fill-opacity:1;stroke:none;stroke-width:0.0371091;stroke-dasharray:none;stroke-opacity:1"
       x="54.988899"
       y="38.023964"
       id="text1"
       inkscape:export-filename="..\www\learning\react\book-shelf-frontend\public\logo.svg"
       inkscape:export-xdpi="96"
       inkscape:export-ydpi="96"><tspan
         sodipodi:role="line"
         id="tspan1"
         style="font-style:normal;font-variant:normal;font-weight:normal;font-stretch:normal;font-size:36.6164px;font-family:NFSeatMetaMedium;-inkscape-font-specification:NFSeatMetaMedium;letter-spacing:-1.98902px;fill:#cccccc;fill-opacity:1;stroke:none;stroke-width:0.0371091;stroke-dasharray:none;stroke-opacity:1"
         x="54.988899"
         y="38.023964">Book Shelf</tspan></text><g
       transform="matrix(0.03527778,0,0,-0.03527778,0.80591488,44.508491)"
       fill="#000000"
       stroke="none"
       id="g3"
       style="fill:#467bf0;fill-opacity:1;stroke-width:0.992126;stroke-dasharray:none"><path
         d="m 568,1105 c -14,-8 -36,-31 -48,-50 -20,-33 -25,-35 -76,-35 -31,0 -64,-5 -74,-10 -25,-13 -34,-64 -21,-120 9,-41 8,-47 -15,-71 -48,-50 -22,-108 68,-153 59,-30 99,-32 161,-11 40,13 49,13 80,0 73,-30 160,-11 223,50 50,47 54,71 21,112 -21,25 -23,36 -19,99 5,90 -6,104 -85,104 -53,0 -57,2 -102,50 -49,53 -69,59 -113,35 z m 73,-72 c 67,-74 64,-179 -6,-249 l -26,-26 -29,27 c -59,57 -67,173 -16,239 33,43 45,44 77,9 z M 472,903 c 4,-34 14,-75 23,-92 19,-38 7,-40 -35,-5 -41,35 -60,74 -60,124 0,41 1,41 33,38 31,-3 32,-4 39,-65 z m 346,38 c 6,-39 -27,-109 -64,-138 -19,-14 -37,-24 -39,-21 -3,3 2,22 11,43 8,21 15,62 15,92 v 54 l 37,-3 c 30,-2 38,-7 40,-27 z m 6,-202 c -34,-33 -83,-49 -132,-41 -38,5 -43,22 -7,22 32,0 94,31 119,59 18,19 21,20 35,6 14,-14 12,-18 -15,-46 z m -392,21 c 23,-17 59,-33 80,-36 70,-12 42,-29 -37,-24 -56,4 -123,53 -104,77 15,17 13,18 61,-17 z"
         id="path1"
         style="fill:#467bf0;fill-opacity:1;stroke-width:0.992126;stroke-dasharray:none" /><path
         d="M 163,852 C 150,850 131,837 119,822 100,797 99,787 105,685 115,513 115,513 235,409 l 105,-91 v -74 c 0,-62 3,-77 23,-100 20,-23 34,-28 84,-32 71,-5 124,15 142,55 13,29 6,236 -11,290 -12,40 -78,98 -120,107 -16,3 -46,20 -65,37 -42,37 -74,50 -102,42 -20,-5 -21,-1 -22,58 0,87 -16,130 -54,144 -16,6 -40,9 -52,7 z m 41,-64 c 3,-7 10,-69 17,-136 l 13,-124 50,-48 c 28,-26 66,-60 84,-75 32,-26 34,-27 50,-11 16,16 12,22 -62,90 -58,53 -78,77 -73,89 10,27 36,20 84,-23 31,-27 55,-40 75,-40 19,0 40,-10 58,-28 25,-25 29,-38 35,-113 4,-46 5,-109 3,-139 l -3,-55 -60,-3 c -75,-4 -85,7 -85,99 v 68 l -47,43 c -26,24 -76,70 -111,103 l -63,60 -6,112 c -3,61 -3,118 0,127 8,19 36,21 41,4 z"
         id="path2"
         style="fill:#467bf0;fill-opacity:1;stroke-width:0.992126;stroke-dasharray:none" /><path
         d="m 1013,853 c -35,-7 -63,-50 -63,-97 0,-71 -11,-118 -26,-112 -21,8 -61,-10 -108,-49 -24,-19 -52,-35 -63,-35 -29,0 -84,-40 -106,-77 -24,-41 -37,-285 -18,-321 20,-38 67,-55 134,-49 87,8 108,32 115,132 l 5,76 96,85 c 53,46 102,93 109,104 13,22 28,254 18,293 -5,21 -55,62 -68,56 -2,-1 -13,-4 -25,-6 z m 42,-63 c 4,-6 3,-63 -1,-128 l -7,-117 -36,-35 C 991,490 941,445 900,408 l -75,-66 -5,-84 -5,-83 -67,-3 c -64,-3 -68,-2 -74,22 -3,14 -2,78 4,142 9,114 10,118 41,146 17,15 42,28 55,28 13,0 47,18 75,41 50,40 81,46 81,15 0,-8 -31,-43 -70,-78 -38,-35 -70,-70 -70,-79 0,-37 31,-27 98,30 89,77 97,87 99,135 5,79 14,181 19,204 5,23 37,31 49,12 z"
         id="path3"
         style="fill:#467bf0;fill-opacity:1;stroke-width:0.992126;stroke-dasharray:none" /></g></g></svg>
