<?xml version="1.0" encoding="UTF-8" standalone="no"?>
<svg
   version="1.0"
   width="300"
   height="300"
   viewBox="0 0 225 225"
   preserveAspectRatio="xMidYMid"
   id="svg1"
   sodipodi:docname="author.svg"
   inkscape:export-filename="..\www\learning\react\book-shelf-frontend\src\assets\author.svg"
   inkscape:export-xdpi="96"
   inkscape:export-ydpi="96"
   xmlns:inkscape="http://www.inkscape.org/namespaces/inkscape"
   xmlns:sodipodi="http://sodipodi.sourceforge.net/DTD/sodipodi-0.dtd"
   xmlns="http://www.w3.org/2000/svg"
   xmlns:svg="http://www.w3.org/2000/svg">
  <defs
     id="defs1" />
  <sodipodi:namedview
     id="namedview1"
     pagecolor="#ffffff"
     bordercolor="#000000"
     borderopacity="0.25"
     inkscape:showpageshadow="2"
     inkscape:pageopacity="0.0"
     inkscape:pagecheckerboard="0"
     inkscape:deskcolor="#d1d1d1"
     inkscape:document-units="pt" />
  <g
     transform="matrix(0.09395163,0,0,-0.09515356,-8.4968369,399.19706)"
     fill="#000000"
     stroke="none"
     id="g1"
     inkscape:export-filename="..\www\learning\react\book-shelf-frontend\src\assets\author.svg"
     inkscape:export-xdpi="96"
     inkscape:export-ydpi="96"
     style="fill:#1e1e1e;fill-opacity:1">
    <path
       d="m 1144,4001 c -126,-36 -225,-116 -282,-226 -44,-85 -48,-96 -72,-212 -12,-58 -17,-109 -13,-141 5,-43 3,-50 -14,-54 -13,-4 -25,-24 -38,-67 -16,-55 -17,-68 -6,-109 8,-26 17,-63 21,-82 10,-51 76,-150 100,-150 14,0 20,-7 20,-24 0,-13 11,-61 24,-107 34,-118 39,-161 26,-208 -15,-57 -46,-86 -110,-106 -30,-10 -187,-67 -348,-127 -161,-60 -306,-111 -322,-115 l -30,-5 v -229 -229 h 1195 1195 v 168 169 l -42,18 c -24,10 -106,46 -183,80 -156,70 -268,115 -429,172 -97,34 -111,42 -134,77 -20,28 -27,55 -30,103 -4,59 -1,70 32,134 20,38 42,95 50,126 9,41 24,69 49,96 22,22 41,55 47,80 5,23 17,65 25,93 23,78 20,130 -10,160 -21,21 -23,28 -14,46 16,30 2,229 -21,298 -26,80 -40,109 -81,166 -73,100 -176,171 -298,208 -73,22 -227,20 -307,-3 z"
       id="path1"
       style="fill:#1e1e1e;fill-opacity:1" />
  </g>
</svg>
