<?xml version="1.0" encoding="UTF-8" standalone="no"?>
<svg
   version="1.0"
   width="300"
   height="300"
   viewBox="0 0 225 225"
   preserveAspectRatio="xMidYMid"
   id="svg13"
   sodipodi:docname="open-book-icon-free-vector.svg"
   inkscape:export-filename="..\www\learning\react\book-shelf-frontend\src\assets\book.svg"
   inkscape:export-xdpi="96"
   inkscape:export-ydpi="96"
   xmlns:inkscape="http://www.inkscape.org/namespaces/inkscape"
   xmlns:sodipodi="http://sodipodi.sourceforge.net/DTD/sodipodi-0.dtd"
   xmlns="http://www.w3.org/2000/svg"
   xmlns:svg="http://www.w3.org/2000/svg">
  <defs
     id="defs13" />
  <sodipodi:namedview
     id="namedview13"
     pagecolor="#ffffff"
     bordercolor="#000000"
     borderopacity="0.25"
     inkscape:showpageshadow="2"
     inkscape:pageopacity="0.0"
     inkscape:pagecheckerboard="0"
     inkscape:deskcolor="#d1d1d1"
     inkscape:document-units="pt" />
  <g
     transform="matrix(0.05787251,0,0,-0.05787251,-2.488914,230.68097)"
     fill="#000000"
     stroke="none"
     id="g13"
     style="fill:#252525;fill-opacity:1">
    <path
       d="m 672,3048 c -8,-8 -12,-47 -12,-120 v -108 h -78 c -47,0 -83,-5 -90,-12 -19,-19 -17,-1631 1,-1647 10,-8 194,-12 627,-13 l 614,-3 60,-71 c 154,-179 258,-179 412,0 l 60,71 614,3 c 433,1 617,5 627,13 18,16 20,1628 1,1647 -7,7 -43,12 -90,12 h -78 v 109 c 0,81 -4,112 -14,120 -10,9 -158,11 -568,9 l -553,-3 -56,-28 c -52,-25 -127,-92 -143,-128 -5,-12 -7,-12 -12,0 -16,36 -91,103 -143,128 l -56,28 -555,3 c -431,2 -558,0 -568,-10 z m 1157,-93 c 29,-16 64,-43 77,-60 56,-74 54,-41 54,-861 v -757 l -54,51 c -88,83 -79,82 -668,82 H 730 v 790 791 l 523,-3 522,-3 z m 1441,-755 v -790 h -508 c -589,0 -580,1 -669,-82 l -53,-51 2,770 3,770 30,49 c 32,51 113,109 164,117 14,2 252,5 529,6 l 502,1 z m -2608,-157 3,-698 550,-5 550,-5 45,-25 c 28,-16 68,-55 105,-102 80,-101 90,-101 170,0 37,47 77,86 105,102 l 45,25 550,5 550,5 3,698 2,697 h 55 55 v -755 -755 h -587 c -436,-1 -595,-4 -615,-13 -14,-7 -61,-51 -102,-99 -122,-140 -170,-140 -292,0 -41,48 -88,92 -102,99 -20,9 -179,12 -614,13 H 550 v 755 755 h 55 55 z"
       id="path1"
       style="fill:#252525;fill-opacity:1" />
    <path
       d="m 948,2779 c -24,-13 -23,-46 1,-59 13,-6 158,-10 405,-10 336,0 387,2 400,16 9,8 16,19 16,24 0,5 -7,16 -16,24 -13,14 -64,16 -402,16 -244,0 -393,-4 -404,-11 z"
       id="path2"
       style="fill:#252525;fill-opacity:1" />
    <path
       d="m 948,2559 c -21,-12 -23,-40 -6,-57 9,-9 113,-12 404,-12 344,0 395,2 408,16 18,18 19,23 6,44 -8,13 -66,15 -402,17 -258,2 -399,-1 -410,-8 z"
       id="path3"
       style="fill:#252525;fill-opacity:1" />
    <path
       d="m 935,2320 c -16,-49 -11,-50 411,-50 344,0 395,2 408,16 9,8 16,19 16,23 0,29 -31,31 -426,31 -397,0 -403,0 -409,-20 z"
       id="path4"
       style="fill:#252525;fill-opacity:1" />
    <path
       d="m 935,2100 c -16,-49 -11,-50 416,-50 392,0 398,0 409,21 26,48 19,49 -416,49 -397,0 -403,0 -409,-20 z"
       id="path5"
       style="fill:#252525;fill-opacity:1" />
    <path
       d="m 939,1884 c -9,-11 -10,-20 -2,-32 9,-15 50,-17 411,-20 397,-2 401,-2 412,19 26,48 19,49 -410,49 -351,0 -399,-2 -411,-16 z"
       id="path6"
       style="fill:#252525;fill-opacity:1" />
    <path
       d="m 939,1664 c -9,-11 -10,-20 -2,-32 9,-15 50,-17 410,-20 339,-2 402,0 412,12 9,11 10,20 1,35 -11,21 -17,21 -409,21 -351,0 -400,-2 -412,-16 z"
       id="path7"
       style="fill:#252525;fill-opacity:1" />
    <path
       d="m 2246,2774 c -9,-8 -16,-19 -16,-24 0,-5 7,-16 16,-24 13,-14 64,-16 404,-16 340,0 391,2 404,16 9,8 16,19 16,24 0,5 -7,16 -16,24 -13,14 -64,16 -404,16 -340,0 -391,-2 -404,-16 z"
       id="path8"
       style="fill:#252525;fill-opacity:1" />
    <path
       d="m 2258,2563 c -9,-2 -20,-14 -24,-25 -14,-46 3,-48 417,-48 339,0 390,2 403,16 20,19 20,29 0,48 -13,14 -62,16 -397,15 -210,-1 -390,-3 -399,-6 z"
       id="path9"
       style="fill:#252525;fill-opacity:1" />
    <path
       d="m 2235,2320 c -16,-49 -11,-50 409,-50 326,0 395,2 412,14 15,12 17,18 8,33 -10,17 -38,18 -417,21 -402,2 -406,2 -412,-18 z"
       id="path10"
       style="fill:#252525;fill-opacity:1" />
    <path
       d="m 2235,2100 c -16,-50 -12,-50 418,-48 360,3 401,5 410,20 8,12 7,21 -2,32 -12,14 -61,16 -417,16 -397,0 -403,0 -409,-20 z"
       id="path11"
       style="fill:#252525;fill-opacity:1" />
    <path
       d="m 2239,1884 c -9,-11 -10,-20 -2,-32 9,-15 48,-17 413,-17 365,0 404,2 413,17 8,12 7,21 -2,32 -12,14 -60,16 -411,16 -351,0 -399,-2 -411,-16 z"
       id="path12"
       style="fill:#252525;fill-opacity:1" />
    <path
       d="m 2239,1664 c -9,-11 -10,-20 -2,-32 9,-15 48,-17 413,-17 365,0 404,2 413,17 8,12 7,21 -2,32 -12,14 -60,16 -411,16 -351,0 -399,-2 -411,-16 z"
       id="path13"
       style="fill:#252525;fill-opacity:1" />
  </g>
</svg>
